<?xml version="1.0" encoding="UTF-8" standalone="no"?>
<!-- Generator: Adobe Illustrator 19.0.0, SVG Export Plug-In . SVG Version: 6.00 Build 0)  -->

<svg
   xmlns:dc="http://purl.org/dc/elements/1.1/"
   xmlns:cc="http://creativecommons.org/ns#"
   xmlns:rdf="http://www.w3.org/1999/02/22-rdf-syntax-ns#"
   xmlns:svg="http://www.w3.org/2000/svg"
   xmlns="http://www.w3.org/2000/svg"
   xmlns:sodipodi="http://sodipodi.sourceforge.net/DTD/sodipodi-0.dtd"
   xmlns:inkscape="http://www.inkscape.org/namespaces/inkscape"
   version="1.1"
   id="Capa_1"
   x="0px"
   y="0px"
   viewBox="0 0 454.96527 496.80362"
   xml:space="preserve"
   inkscape:version="0.91 r13725"
   sodipodi:docname="champagne.svg"
   width="454.96527"
   height="496.80362"><metadata
   id="metadata55"><rdf:RDF><cc:Work
       rdf:about=""><dc:format>image/svg+xml</dc:format><dc:type
         rdf:resource="http://purl.org/dc/dcmitype/StillImage" /><dc:title></dc:title></cc:Work></rdf:RDF></metadata><defs
   id="defs53">
	
	
	
	
	
	
	
</defs><sodipodi:namedview
   pagecolor="#ffffff"
   bordercolor="#666666"
   borderopacity="1"
   objecttolerance="10"
   gridtolerance="10"
   guidetolerance="10"
   inkscape:pageopacity="0"
   inkscape:pageshadow="2"
   inkscape:window-width="1920"
   inkscape:window-height="1058"
   id="namedview51"
   showgrid="false"
   inkscape:zoom="0.9516129"
   inkscape:cx="362.82404"
   inkscape:cy="233.65837"
   inkscape:window-x="-8"
   inkscape:window-y="-8"
   inkscape:window-maximized="1"
   inkscape:current-layer="Capa_1"
   fit-margin-top="10"
   fit-margin-left="10"
   fit-margin-right="10"
   fit-margin-bottom="10" />


<g
   id="g21"
   transform="translate(121.12116,-17.636562)">
</g>
<g
   id="g23"
   transform="translate(121.12116,-17.636562)">
</g>
<g
   id="g25"
   transform="translate(121.12116,-17.636562)">
</g>
<g
   id="g27"
   transform="translate(121.12116,-17.636562)">
</g>
<g
   id="g29"
   transform="translate(121.12116,-17.636562)">
</g>
<g
   id="g31"
   transform="translate(121.12116,-17.636562)">
</g>
<g
   id="g33"
   transform="translate(121.12116,-17.636562)">
</g>
<g
   id="g35"
   transform="translate(121.12116,-17.636562)">
</g>
<g
   id="g37"
   transform="translate(121.12116,-17.636562)">
</g>
<g
   id="g39"
   transform="translate(121.12116,-17.636562)">
</g>
<g
   id="g41"
   transform="translate(121.12116,-17.636562)">
</g>
<g
   id="g43"
   transform="translate(121.12116,-17.636562)">
</g>
<g
   id="g45"
   transform="translate(121.12116,-17.636562)">
</g>
<g
   id="g47"
   transform="translate(121.12116,-17.636562)">
</g>
<g
   id="g49"
   transform="translate(121.12116,-17.636562)">
</g>
<rect
   style="opacity:1;fill:#592012;fill-opacity:1;stroke:#592012;stroke-width:4.99999952;stroke-linecap:round;stroke-miterlimit:4;stroke-dasharray:none;stroke-dashoffset:0;stroke-opacity:1"
   id="rect4194"
   width="95.878998"
   height="53.50042"
   x="291.18884"
   y="-231.25926"
   ry="6.6875525"
   transform="matrix(0.76650278,0.64224098,-0.64224098,0.76650278,0,0)" /><path
   style="opacity:1;fill:#00699f;fill-opacity:0.47058824;stroke:#00699f;stroke-width:8;stroke-linecap:round;stroke-miterlimit:4;stroke-dasharray:none;stroke-dashoffset:0;stroke-opacity:1"
   d="m 16.771448,356.20818 c -2.78752,-5.0293 -3.49468,-10.67198 -2.06814,-16.50257 l 1.22206,-4.99484 49.144531,-70.30498 c 44.373501,-63.47965 49.870721,-71.10818 56.624881,-78.57855 16.47482,-18.2218 29.98822,-26.03357 62.17721,-35.94313 28.13402,-8.6612 45.71196,-15.29635 63.55775,-23.99118 26.64934,-12.98408 50.30485,-29.949472 68.72894,-49.29138 l 5.5206,-5.795612 -1.93111,-1.613347 c -5.40568,-4.51587 -8.25826,-15.184207 -6.0914,-22.781023 1.75565,-6.155164 6.83805,-12.049457 12.58372,-14.593923 4.93405,-2.185041 10.89579,-2.633813 16.1387,-1.214845 3.62472,0.981013 3.96922,1.253785 44.94572,35.587367 l 41.29299,34.598773 1.64761,3.72932 c 6.32817,14.32361 -2.41643,30.29957 -17.88941,32.68313 -4.58719,0.70664 -11.06528,-0.69009 -14.92881,-3.21877 l -3.15289,-2.06357 -3.40765,4.06697 c -7.63365,9.11062 -19.30648,29.002 -26.15282,44.56635 -11.72523,26.65599 -18.81426,55.581 -24.24544,98.9276 -2.31193,18.45179 -3.73194,26.39206 -6.1504,34.39162 -2.21039,7.3113 -6.64897,17.16371 -10.68701,23.72219 -7.74691,12.58235 -9.251,14.19125 -72.92579,78.00802 -33.46655,33.54116 -62.13982,61.95034 -63.71839,63.13153 -3.50016,2.61904 -9.72867,4.34167 -14.54753,4.02339 -8.07818,-0.53352 -3.35486,3.08811 -82.151679,-62.99016 C 20.711918,361.40414 18.676248,359.64474 16.771468,356.20815 Z"
   id="path4196"
   inkscape:connector-curvature="0" /><rect
   rx="4.2563729"
   style="opacity:1;fill:#87574a;fill-opacity:1;stroke:#87574a;stroke-width:3.4347682;stroke-linecap:round;stroke-miterlimit:4;stroke-dasharray:none;stroke-dashoffset:0;stroke-opacity:1"
   id="rect4194-5"
   width="61.023335"
   height="39.667942"
   x="302.7337"
   y="-57.414505"
   ry="4.9584928"
   transform="matrix(0.86218641,0.50659114,-0.50659114,0.86218641,0,0)" /><path
   style="opacity:1;fill:#00699f;fill-opacity:0.47058824;stroke:#00699f;stroke-width:5;stroke-linecap:round;stroke-miterlimit:4;stroke-dasharray:none;stroke-dashoffset:0;stroke-opacity:1"
   d="m 77.528265,403.37378 c -2.169423,-3.05025 -3.00152,-6.86807 -2.433566,-11.16556 l 0.486559,-3.6815 27.990222,-57.03937 c 25.27289,-51.5019 28.41903,-57.71794 32.40729,-64.02916 9.72818,-15.39438 18.16803,-23.0482 38.83298,-35.21638 18.06171,-10.63531 29.26758,-18.13318 40.51784,-27.11058 16.80016,-13.40605 31.36197,-29.09811 42.30801,-45.59185 l 3.27987,-4.94219 -1.38223,-0.80898 c -3.86894,-2.26479 -6.44544,-9.23495 -5.50146,-14.88463 0.76485,-4.57754 3.74833,-9.5169 7.38694,-12.22958 3.12463,-2.32948 7.04146,-3.6166 10.60304,-3.48429 2.46232,0.0915 2.70793,0.22532 32.04351,17.4619 l 29.56217,17.36971 1.3311,2.33037 c 5.11247,8.95047 0.35563,21.51602 -9.73139,25.70621 -2.99045,1.24224 -7.3681,1.32729 -10.08833,0.196 l -2.21989,-0.92321 -1.99296,3.39189 c -4.46451,7.59832 -10.90678,23.37177 -14.43381,35.34017 -6.04049,20.49745 -8.86611,41.81893 -9.66397,72.92241 -0.33963,13.24015 -0.76715,19.00718 -1.85167,24.97872 -0.99122,5.45777 -3.29321,13.05103 -5.54263,18.2827 -4.31548,10.0369 -5.20715,11.40423 -43.23288,66.29542 -19.98577,28.85001 -37.13022,53.3393 -38.09879,54.42066 -2.1476,2.39768 -6.15881,4.61637 -9.36872,5.18203 -5.38097,0.94826 -2.02115,2.70092 -58.43637,-30.48339 C 80.471468,406.3519 79.010642,405.45812 77.528242,403.37382 Z"
   id="path4196-1"
   inkscape:connector-curvature="0" /><path
   style="opacity:1;fill:#87ae4a;fill-opacity:1;stroke:none;stroke-width:5;stroke-linecap:round;stroke-miterlimit:4;stroke-dasharray:none;stroke-dashoffset:0;stroke-opacity:1"
   d="m 135.95522,204.66244 c 60.92772,38.93268 108.48586,78.78092 158.90685,133.14562 l -76.1461,77.53257 C 176.03706,367.59477 134.24172,331.4049 75.84961,293.49547 Z"
   id="rect4245"
   inkscape:connector-curvature="0"
   sodipodi:nodetypes="ccccc" /></svg>