<?xml version="1.0" ?><svg enable-background="new 0 0 128 128" version="1.1" viewBox="0 0 128 128" xml:space="preserve" xmlns="http://www.w3.org/2000/svg" xmlns:xlink="http://www.w3.org/1999/xlink"><g id="Слой_2"/><g id="_x2B__more_4"><g id="lock"><path d="M36,44v30h56V44    c0-14.4-11.6-26-26-26h-4C47.6,18,36,29.6,36,44z M79,61H49V45c0-7.7,6.3-14,14-14h2c7.7,0,14,6.3,14,14V61z" fill="#E0F7FA" stroke="#78909C" stroke-linejoin="round" stroke-miterlimit="10" stroke-width="2"/><path d="M49.1,27c-0.6,0-1.3-0.3-1.7-0.9c-0.6-0.9-0.4-2.2,0.5-2.8C52.1,20.5,57,19,62,19c1.1,0,2,0.9,2,2    s-0.9,2-2,2c-4.2,0-8.3,1.3-11.8,3.7C49.8,26.9,49.4,27,49.1,27z M42.9,35.4c0.8-1.8,1.9-3.5,3.2-5c0.7-0.8,0.6-2.1-0.2-2.8    c-0.8-0.7-2.1-0.6-2.8,0.2c-1.5,1.8-2.8,3.8-3.8,6c-0.5,1,0,2.2,1,2.6c0.3,0.1,0.5,0.2,0.8,0.2C41.8,36.5,42.5,36.1,42.9,35.4z" fill="#FFFFFF"/><path d="M70,110H58    c-14.4,0-26-11.6-26-26V59c0.8-0.8,1.2-1.2,2-2h60c0.8,0.8,1.2,1.2,2,2v25C96,98.4,84.4,110,70,110z" fill="#FFA726" stroke="#F57C00" stroke-linejoin="round" stroke-miterlimit="10" stroke-width="2"/><path d="M68.1,75.7    c1.6-2.7,0.5-6.2-2.6-7.4c-1.9-0.7-4-0.1-5.4,1.4c-1.1,1.3-1.5,2.8-1.2,4.3l-1,3c-0.5,1.6-1.4,3-2.6,4.1l-4.6,4.4    c-0.5,0.4-0.7,1.1-0.6,1.7l0.6,4.7c0.2,1.3,1.5,2.1,2.7,1.6l4.1-1.5c0.6-0.2,1.1-0.7,1.2-1.3l1.9-6.4c0.5-1.6,1.3-3,2.5-4.2    l2.2-2.2C66.3,77.5,67.4,76.8,68.1,75.7z" fill="#FFB74D" stroke="#F57C00" stroke-linejoin="round" stroke-miterlimit="10" stroke-width="2"/><path d="M65,87.7V85h-2v2.7c-1.4,0.4-2.5,1.8-2.5,3.3c0,1.9,1.6,3.5,3.5,3.5s3.5-1.6,3.5-3.5    C67.5,89.4,66.4,88.1,65,87.7z" fill="#5D4037"/><g><path d="M13.2,14.3     c-3.7,1-6,4.8-4.9,8.6c1,3.7,4.8,6,8.6,4.9s6-4.8,4.9-8.6C20.8,15.5,16.9,13.3,13.2,14.3z M14.3,24.3c-1.6,0.4-3.2-0.5-3.7-2.1     c-0.4-1.6,0.5-3.2,2.1-3.7s3.2,0.5,3.7,2.1C16.9,22.3,15.9,23.9,14.3,24.3z" fill="#F5F5F5" stroke="#B0BEC5" stroke-linejoin="round" stroke-miterlimit="10" stroke-width="2"/><polyline fill="#F5F5F5" points="19.4,21.9      29,19.4 29.8,22.3 32.7,21.5 31.9,18.6 34.8,17.8 33.8,13.9 18.3,18.1    " stroke="#B0BEC5" stroke-linejoin="round" stroke-miterlimit="10" stroke-width="2"/></g><path d="M106.2,29    c-2.8-2.2-6.8-2.3-9.7-0.2c-2.4,1.7-3.4,4.4-3.3,6.9c0.1,1.1-0.4,2.2-1.2,3l-1.5,1.5l5.7,5.7l1.5-1.5c0.8-0.8,1.9-1.2,3-1.2    c2.2,0.1,4.4-0.6,6.1-2.3C110.2,37.5,110,32,106.2,29z M97.7,38.8c-2-2-2-5.1,0-7.1c2-2,5.1-2,7.1,0c2,2,2,5.1,0,7.1    C102.8,40.7,99.6,40.7,97.7,38.8z" fill="#FFE082" stroke="#FFB74D" stroke-linejoin="round" stroke-miterlimit="10" stroke-width="2"/><path d="M94.8,44.4l-4.9,4.9    l2.1,2.1l-2.1,2.1l-2.1-2.1l-2.1,2.1l-2.8-2.8l9.2-9.2C94.8,38.8,97.7,41.6,94.8,44.4z" fill="#FFE082" stroke="#FFB74D" stroke-linejoin="round" stroke-miterlimit="10" stroke-width="2"/><path d="M110.3,104    c2.6-1.6,3.9-4.7,3.1-7.8c-1-3.7-4.8-6-8.6-4.9c-3.7,1-6,4.8-4.9,8.6c0.8,3.1,3.6,5.1,6.6,5.2l1.3,5l-2.9,0.8l0.8,2.9l2.9-0.8    l0.3,1.1l-1.5,0.4l0.5,1.8l1.5-0.4l0.6,2.1l3.9-1L110.3,104z M103.3,97.3c-0.4-1.6,0.5-3.2,2.1-3.7s3.2,0.5,3.7,2.1    s-0.5,3.2-2.1,3.7S103.8,98.9,103.3,97.3z" fill="#F5F5F5" stroke="#B0BEC5" stroke-linejoin="round" stroke-miterlimit="10" stroke-width="2"/><path d="M25.1,37.1    c-0.3-2-1.9-3.7-4-4.1s-4.2,0.7-5.2,2.4c-2,0.3-3.7,1.9-4.1,4c-0.5,2.7,1.3,5.3,4,5.8L13,61l1.6,2.3l4.3-1.3l0.2-1l-1.4-3.3    l2.6-3.1L19.7,52l1.5-2.8l0.5-3c2.7,0.5,5.3-1.3,5.8-4C27.9,40.2,26.9,38.1,25.1,37.1z M19.8,40.4c-1.4-0.2-2.3-1.5-2-2.9    c0.2-1.4,1.5-2.3,2.9-2c1.4,0.2,2.3,1.5,2,2.9C22.4,39.7,21.1,40.6,19.8,40.4z" fill="#F5F5F5" stroke="#B0BEC5" stroke-linejoin="round" stroke-miterlimit="10" stroke-width="2"/><g><polygon fill="#F5F5F5" points="18.9,91      11.2,98.8 12.6,100.2 13.3,99.5 16.1,102.3 15.4,103 16.8,104.4 24.6,96.7 23.2,95.2 23.9,94.5 21.1,91.7 20.4,92.4    " stroke="#B0BEC5" stroke-linejoin="round" stroke-miterlimit="10" stroke-width="2"/><path d="M33.7,102.9     c-1.6,0.9-3.1,2-4.5,3.3L15.8,92.8c-0.6-0.6-1.5-0.6-2.1,0s-0.6,1.5,0,2.1l13.5,13.5c-1.3,1.4-2.4,2.9-3.3,4.5l5.1,5.1     c2-1.2,3.9-2.6,5.6-4.3c1.7-1.7,3.1-3.6,4.3-5.6L33.7,102.9z" fill="#F5F5F5" stroke="#B0BEC5" stroke-linejoin="round" stroke-miterlimit="10" stroke-width="2"/><line fill="none" stroke="#B0BEC5" stroke-linecap="round" stroke-linejoin="round" stroke-miterlimit="10" stroke-width="2" x1="31" x2="33.8" y1="112.9" y2="110.1"/></g></g></g><g id="icons"/></svg>